<svg width="115" height="36" viewBox="0 0 115 36" fill="none" xmlns="http://www.w3.org/2000/svg">
<path d="M33.1317 25.4899C32.97 25.0378 32.7809 24.6004 32.6009 24.1953C32.3238 23.5756 32.0413 22.9583 31.7537 22.3434L31.7313 22.2953C29.1902 16.8219 26.5295 11.4044 23.7509 6.04659L23.6321 5.81762C23.3432 5.25563 23.0492 4.69623 22.7502 4.13948C22.3915 3.43172 21.9564 2.76502 21.4525 2.15121C20.8849 1.47735 20.1759 0.935582 19.3753 0.564076C18.5742 0.192418 17.7011 -0.000115835 16.8173 5.22841e-08C15.9336 0.00011594 15.0605 0.192879 14.2596 0.564747C13.4591 0.936426 12.7502 1.47835 12.1828 2.15232C11.6796 2.76627 11.2449 3.43279 10.8862 4.14015C10.5845 4.70204 10.2878 5.26658 9.99625 5.83372L9.8862 6.04614C7.10764 11.4042 4.44681 16.822 1.9056 22.2956L1.86921 22.3738C1.58654 22.9786 1.30884 23.5857 1.03614 24.1951C0.856449 24.6 0.667553 25.0371 0.505609 25.4904C0.0417043 26.7249 -0.106194 28.0549 0.0752577 29.3605C0.267966 30.6803 0.804108 31.927 1.63045 32.9768C2.4574 34.0275 3.54559 34.8449 4.78734 35.3484C5.72576 35.7263 6.72888 35.9194 7.74118 35.9172C8.05922 35.9172 8.37704 35.8986 8.69307 35.862C9.97325 35.6996 11.2081 35.2848 12.3255 34.642C13.7906 33.8225 15.2377 32.6215 16.8185 30.9054C18.3993 32.6215 19.8463 33.8225 21.3116 34.6418C22.4289 35.2848 23.6638 35.6996 24.944 35.862C25.26 35.8987 25.5778 35.9171 25.8959 35.9172C26.9082 35.9194 27.9113 35.7262 28.8495 35.3484C30.0913 34.8449 31.1796 34.0275 32.0066 32.9768C32.833 31.927 33.3691 30.6803 33.5618 29.3605C33.7431 28.0548 33.5953 26.7246 33.1317 25.4899ZM16.8185 27.3608C14.8615 24.8914 13.606 22.5981 13.1653 20.6758C12.9847 19.9555 12.942 19.2078 13.0395 18.4717C13.1166 17.932 13.3157 17.4168 13.6219 16.9649C13.999 16.4782 14.4832 16.0842 15.0374 15.8133C15.5918 15.5424 16.2012 15.4016 16.8188 15.4017C17.4364 15.4018 18.0458 15.5427 18.6001 15.8138C19.1542 16.0847 19.6384 16.4787 20.0154 16.9653C20.3216 17.4173 20.5207 17.9326 20.5978 18.4724C20.6952 19.2087 20.6523 19.9566 20.4716 20.6771C20.0305 22.5994 18.7751 24.892 16.8185 27.3608ZM31.2762 29.0354C31.1414 29.9581 30.7666 30.8297 30.1889 31.5637C29.6106 32.2983 28.8497 32.8699 27.9814 33.2219C27.103 33.5722 26.15 33.6963 25.2106 33.5828C24.2343 33.4576 23.2933 33.1377 22.4441 32.6421C21.1398 31.9127 19.8195 30.7929 18.3338 29.1501C20.6989 26.2471 22.1759 23.5712 22.7226 21.1876C22.9687 20.1855 23.022 19.1461 22.8798 18.1243C22.7509 17.2437 22.4226 16.4038 21.9199 15.668C21.3305 14.8737 20.562 14.2283 19.6762 13.7837C18.79 13.3388 17.8113 13.1071 16.8188 13.1071C15.8262 13.1071 14.8475 13.3388 13.9613 13.7837C13.0755 14.2281 12.3069 14.8733 11.7174 15.6675C11.2148 16.4031 10.8866 17.2426 10.7575 18.1229C10.6152 19.1444 10.6682 20.1835 10.9138 21.1854C11.4603 23.5696 12.9373 26.2464 15.3031 29.1503C13.8175 30.7929 12.4973 31.9127 11.193 32.6423C10.3437 33.1378 9.40278 33.4577 8.42646 33.5828C7.487 33.6964 6.53395 33.5722 5.65545 33.2219C4.78727 32.8699 4.02644 32.2984 3.44822 31.5639C2.87055 30.8298 2.49578 29.9582 2.36111 29.0354C2.23169 28.0976 2.34185 27.1424 2.6814 26.2582C2.81033 25.8969 2.96149 25.5427 3.14859 25.1214C3.4162 24.5237 3.68866 23.928 3.96594 23.3346L4.00233 23.2559C6.52961 17.8128 9.17584 12.4253 11.9391 7.09707L12.0496 6.88353C12.3326 6.33727 12.6251 5.77222 12.9202 5.22641C13.2026 4.66368 13.5444 4.13246 13.9397 3.64174C14.2906 3.22051 14.7305 2.88147 15.228 2.64875C15.7255 2.41603 16.2684 2.29535 16.8181 2.29531C17.3678 2.29527 17.9107 2.41586 18.4083 2.6485C18.9058 2.88115 19.3457 3.22012 19.6967 3.64129C20.0923 4.13161 20.4342 4.66263 20.7164 5.22529C21.0086 5.76641 21.2986 6.32631 21.5791 6.86765L21.6982 7.09729C24.4615 12.4255 27.1077 17.8131 29.6347 23.2564L29.6572 23.3047C29.9335 23.9001 30.2194 24.5155 30.4885 25.1217C30.6758 25.5434 30.8272 25.898 30.9559 26.258C31.2953 27.1423 31.4054 28.0974 31.2762 29.0352M46.9973 27.0717C46.0966 27.0717 45.2678 26.8921 44.5109 26.5326C43.7539 26.173 43.1055 25.6695 42.5289 25.0226C41.9523 24.3755 41.52 23.6206 41.1954 22.7935C40.8711 21.9306 40.7269 20.9958 40.7269 19.9893C40.7269 18.9827 40.9072 18.0118 41.2316 17.1489C41.5559 16.2862 42.0244 15.5311 42.601 14.848C43.1776 14.2009 43.8622 13.6616 44.6551 13.302C45.4479 12.9425 46.2767 12.7627 47.2138 12.7627C48.1145 12.7627 48.9074 12.9425 49.6284 13.338C50.3491 13.6976 50.9257 14.2369 51.394 14.9198L51.5023 13.1583H54.8175V26.7124H51.5023L51.394 24.7351C50.9257 25.4539 50.313 26.0293 49.5201 26.4606C48.7993 26.8564 47.9343 27.0719 46.9975 27.0719M47.8627 23.8364C48.5114 23.8364 49.0879 23.6566 49.6286 23.3331C50.1331 22.9735 50.5293 22.5062 50.8538 21.9311C51.142 21.3558 51.2862 20.6726 51.2862 19.9175C51.2862 19.1624 51.142 18.4793 50.8538 17.9042C50.5654 17.3289 50.1328 16.8616 49.6286 16.5022C49.1239 16.1425 48.5114 15.9987 47.8627 15.9987C47.214 15.9987 46.6375 16.1785 46.0968 16.502C45.5924 16.8616 45.1959 17.3289 44.8716 17.904C44.5832 18.4793 44.439 19.1624 44.439 19.9175C44.439 20.6726 44.5832 21.3558 44.8716 21.9309C45.1598 22.5062 45.5924 22.9735 46.0968 23.3328C46.6375 23.6566 47.214 23.8364 47.8627 23.8364ZM60.4759 9.49118C60.4759 9.88673 60.4038 10.2463 60.2234 10.5338C60.0367 10.8337 59.7763 11.0812 59.4667 11.2529C59.1424 11.4327 58.7821 11.5045 58.4218 11.5045C58.0613 11.5045 57.7008 11.4327 57.3765 11.2529C57.0669 11.0812 56.8064 10.8337 56.6198 10.5338C56.4396 10.2103 56.3675 9.88673 56.3675 9.49118C56.3675 9.09585 56.4394 8.7363 56.6198 8.44852C56.7999 8.12497 57.0521 7.90942 57.3767 7.72964C57.7008 7.54987 58.0613 7.47787 58.4218 7.47787C58.7821 7.47787 59.1424 7.54987 59.4667 7.72964C59.7763 7.90125 60.0369 8.14868 60.2236 8.44852C60.3676 8.7363 60.4759 9.05985 60.4759 9.49118ZM56.6198 26.6766V13.1223H60.2234V26.6764L56.6198 26.6766ZM69.8457 16.6816V16.7178C69.6655 16.6458 69.4492 16.6098 69.2689 16.574C69.0528 16.538 68.8724 16.538 68.6564 16.538C67.6472 16.538 66.8905 16.8256 66.386 17.4369C65.8454 18.048 65.5931 18.9109 65.5931 20.0253V26.6766H61.9895V13.1223H65.3047L65.413 15.1716C65.7733 14.4525 66.2059 13.9131 66.8184 13.5178C67.395 13.122 68.0796 12.9425 68.8724 12.9425C69.1249 12.9425 69.3771 12.9783 69.5934 13.0143C69.7012 13.0503 69.7733 13.0503 69.8457 13.0863V16.6816ZM71.287 26.6766V7.54964H74.8908V14.848C75.3953 14.2011 75.9719 13.6976 76.6927 13.3023C77.4137 12.9427 78.2065 12.7269 79.1072 12.7269C80.0079 12.7269 80.8369 12.9067 81.5936 13.2663C82.3506 13.6258 82.9992 14.1291 83.5758 14.7762C84.1526 15.4234 84.585 16.1785 84.9093 17.0056C85.2337 17.8682 85.3776 18.8029 85.3776 19.8095C85.3776 20.8164 85.1975 21.7871 84.8734 22.65C84.5488 23.5128 84.0805 24.2677 83.5037 24.9508C82.9271 25.5982 82.2425 26.1373 81.4497 26.4968C80.6568 26.8564 79.828 27.0362 78.8911 27.0362C77.99 27.0362 77.1974 26.8564 76.4766 26.4608C75.7556 26.1013 75.179 25.5619 74.7107 24.8791L74.6024 26.6406L71.287 26.6766ZM78.2422 23.8364C78.8911 23.8364 79.4677 23.6566 80.0081 23.3331C80.5126 22.9735 80.909 22.5062 81.2334 21.9311C81.5218 21.3558 81.666 20.6726 81.666 19.9175C81.666 19.1624 81.5218 18.4793 81.2334 17.9042C80.909 17.3289 80.5126 16.8616 80.0081 16.5022C79.5036 16.1425 78.8911 15.9987 78.2422 15.9987C77.5936 15.9987 77.017 16.1785 76.4766 16.502C75.9719 16.8616 75.5755 17.3289 75.2511 17.904C74.9629 18.4793 74.8187 19.1624 74.8187 19.9175C74.8187 20.6726 74.9629 21.3558 75.2511 21.9309C75.5395 22.5062 75.9721 22.9735 76.4766 23.3328C77.017 23.6566 77.5936 23.8364 78.2422 23.8364ZM86.7473 26.6766V13.1223H90.0625L90.1708 14.884C90.5672 14.2367 91.1076 13.7334 91.7925 13.338C92.4771 12.9425 93.27 12.7627 94.1711 12.7627C95.18 12.7627 96.0448 13.0143 96.7655 13.4818C97.5225 13.9491 98.0991 14.6322 98.4955 15.4951C98.8919 16.358 99.108 17.4004 99.108 18.5871V26.7124H95.5044V19.0544C95.5044 18.1198 95.2881 17.3647 94.8557 16.8251C94.4233 16.2862 93.8465 15.9985 93.0898 15.9985C92.5492 15.9985 92.0807 16.1062 91.6483 16.358C91.2518 16.6096 90.9275 16.9331 90.6753 17.4007C90.423 17.832 90.315 18.3711 90.315 18.9107V26.6764L86.7473 26.6766ZM100.91 26.6766V7.54964H104.514V14.848C105.018 14.2011 105.595 13.6976 106.315 13.3023C107.036 12.9427 107.829 12.7269 108.73 12.7269C109.631 12.7269 110.46 12.9067 111.217 13.2663C111.974 13.6258 112.622 14.1291 113.199 14.7762C113.776 15.4234 114.208 16.1785 114.532 17.0056C114.857 17.8682 115 18.8029 115 19.8095C115 20.8164 114.821 21.7871 114.496 22.65C114.172 23.5128 113.704 24.2677 113.126 24.9508C112.55 25.5982 111.865 26.1373 111.072 26.4968C110.28 26.8564 109.451 27.0362 108.514 27.0362C107.613 27.0362 106.82 26.8564 106.099 26.4608C105.378 26.1013 104.802 25.5619 104.334 24.8791L104.226 26.6406L100.91 26.6766ZM107.901 23.8364C108.55 23.8364 109.126 23.6566 109.667 23.3331C110.172 22.9735 110.568 22.5062 110.892 21.9311C111.181 21.3558 111.325 20.6726 111.325 19.9175C111.325 19.1624 111.181 18.4793 110.892 17.9042C110.604 17.3289 110.172 16.8616 109.667 16.5022C109.162 16.1425 108.55 15.9987 107.901 15.9987C107.253 15.9987 106.676 16.1785 106.135 16.502C105.631 16.8616 105.235 17.3289 104.91 17.904C104.586 18.4793 104.478 19.1624 104.478 19.9175C104.478 20.6726 104.622 21.3558 104.91 21.9309C105.199 22.5062 105.631 22.9735 106.135 23.3328C106.676 23.6566 107.217 23.8364 107.901 23.8364Z" fill="#FF385C"/>
</svg>
